PathFileType	4	(x/y/z)	S01_M20_T09.trc
DataRate	CameraRate	NumFrames	NumMarkers	Units	OrigDataRate	OrigDataStartFrame	OrigNumFrames
240	240	6	51	mm	240	413	471
Frame#	Time	Sternum			R.Acromium			L.Acromium			Top.Head			R.ASIS			L.ASIS			R.PSIS			L.PSIS			R.Great.Tro			L.Great.Tro			R.Iliac.Crest			L.Iliac.Crest			V.Sacral			R.Thigh.Upper.Post			R.Thigh.Lower.Ant			R.Thigh.Lower.Post			R.Thigh.Upper.Ant			R.Knee.Lat			R.Knee.Med			R.Shank.Upper.Post			R.Shank.Lower.Ant			R.Shank.Lower.Post			R.Shank.Upper.Ant			R.Ankle.Lat			R.Ankle.Med			R.Heel.Upper			R.Heel.Med			R.Heel.Lat			R.Toe.Lat			R.Toe.Med			R.Toe.Tip			L.Thigh.Upper.Post			L.Thigh.Lower.Ant			L.Thigh.Lower.Post			L.Thigh.Upper.Ant			L.Knee.Lat			L.Knee.Med			L.Shank.Upper.Post			L.Shank.Lower.Ant			L.Shank.Lower.Post			L.Shank.Upper.Ant			L.Ankle.Lat			L.Ankle.Med			L.Heel.Upper			L.Heel.Med			L.Heel.Lat			L.Toe.Lat			L.Toe.Med			L.Toe.Tip			Cervical.Spine			Back			
		X1	Y1	Z1	X2	Y2	Z2	X3	Y3	Z3	X4	Y4	Z4	X5	Y5	Z5	X6	Y6	Z6	X7	Y7	Z7	X8	Y8	Z8	X9	Y9	Z9	X10	Y10	Z10	X11	Y11	Z11	X12	Y12	Z12	X13	Y13	Z13	X14	Y14	Z14	X15	Y15	Z15	X16	Y16	Z16	X17	Y17	Z17	X18	Y18	Z18	X19	Y19	Z19	X20	Y20	Z20	X21	Y21	Z21	X22	Y22	Z22	X23	Y23	Z23	X24	Y24	Z24	X25	Y25	Z25	X26	Y26	Z26	X27	Y27	Z27	X28	Y28	Z28	X29	Y29	Z29	X30	Y30	Z30	X31	Y31	Z31	X32	Y32	Z32	X33	Y33	Z33	X34	Y34	Z34	X35	Y35	Z35	X36	Y36	Z36	X37	Y37	Z37	X38	Y38	Z38	X39	Y39	Z39	X40	Y40	Z40	X41	Y41	Z41	X42	Y42	Z42	X43	Y43	Z43	X44	Y44	Z44	X45	Y45	Z45	X46	Y46	Z46	X47	Y47	Z47	X48	Y48	Z48	X49	Y49	Z49	X50	Y50	Z50	X51	Y51	Z51	

413	1.7167	920.16	1246.7	253.69	806.81	1494.7	430.77	790.97	1510.4	100.71	835.93	1818.2	264.94	878.69	994.15	405.52	870.58	994.51	136.67	639.68	1034.8	329.9	629.12	1043.2	227.18	810.48	942.45	495.03	747.92	959.04	67.425	792.45	1093.4	474.77	752.01	1074.9	70.47	617.92	1004.7	274.7	922.22	657.05	469.65	1016.4	628.51	438.66	965.7	581.93	447.47	975.15	706.71	460.62	1012.9	543.39	443.35	1018.2	543.21	296.62	1033.6	374.64	462.23	1130.3	332.14	428.96	1064.2	311.52	451.22	1095	395.43	445.68	1172.4	131.02	419.29	1204.8	160.31	332.13	1140	68.103	353.17	1172.6	55.279	326.37	1162	47.347	389.31	1316	140.59	470.31	1350.3	172.99	354.48	1382.8	223.33	416.32	631.58	706.97	101.56	689.61	612.97	98.303	613.87	618.93	118.61	699.65	706.49	77.985	626.81	521.5	107.14	661.14	515.14	248.49	526.93	401.14	100.71	559.39	297.48	124.94	504.24	326.83	107.76	582.66	369.98	113.33	431.17	121.63	158.46	461.99	130.88	251.85	357.17	99.74	206.97	365.8	73.955	240.47	361.81	72.861	177.89	566.63	39.01	135.7	595.88	44.694	255.82	658.33	48.526	204.04	714.49	1561.1	272.57	621.26	1251.7	287.46
414	1.7208	926	1245.6	254.14	812.93	1493.4	431.74	796.83	1509.7	101.7	841.78	1817.2	266.45	884.82	993	405.6	875.99	993.47	136.72	645.61	1033.8	330.66	634.81	1042.3	227.97	816.82	941.46	495.29	753.09	958.24	67.805	798.7	1092.2	475.23	757.32	1074	70.951	623.64	1003.8	275.54	928.85	656.4	469.69	1022.9	627.87	438.22	972.27	581.27	447.46	981.71	706.09	460.26	1019.3	542.63	443.26	1023.9	542.31	296.5	1040.1	373.85	462.24	1136.7	331.42	428.69	1070.8	310.76	451.18	1101.4	394.68	445.5	1179.1	130.34	419.07	1211.1	159.58	331.76	1146.6	67.308	353.12	1179	54.49	326.21	1168.8	46.631	389.24	1322.8	140.21	469.6	1356.7	172.56	353.6	1389.3	223.02	415.32	636.07	706.74	101.9	693.82	612.5	98.354	618.06	618.74	118.9	704.11	706.03	78.209	630.62	521.26	107.23	665.26	514.6	248.52	529.93	401.62	100.78	561.59	297.69	124.88	506.67	327.51	107.73	585.44	370.02	113.31	432.07	122.65	158.38	462.9	131.83	251.7	357.83	101.41	206.83	366.27	75.661	240.37	362.27	74.458	177.8	566.73	39.061	135.71	596.04	44.684	255.83	658.49	48.264	204.04	720.48	1560.1	273.72	627.11	1250.7	288.22
415	1.725	931.87	1244.5	254.61	819.08	1492.2	432.74	802.72	1508.9	102.72	847.65	1816.3	267.99	891	991.9	405.69	881.44	992.45	136.78	651.6	1032.9	331.43	640.55	1041.5	228.77	823.21	940.51	495.56	758.31	957.46	68.199	805	1091	475.71	762.69	1073.1	71.444	629.41	1003	276.38	935.53	655.77	469.75	1029.5	627.23	437.81	978.87	580.61	447.45	988.31	705.47	459.93	1025.7	541.86	443.16	1029.7	541.43	296.4	1046.6	373.06	462.24	1143.1	330.59	428.39	1077.3	309.96	451.14	1107.8	393.87	445.29	1185.4	129.55	418.84	1217.1	158.66	331.35	1152.7	66.44	353.08	1185	53.579	326.04	1175.1	45.827	389.17	1329.3	139.58	468.83	1362.7	171.81	352.65	1395.5	222.38	414.2	640.62	706.53	102.24	698.09	612.05	98.401	622.32	618.57	119.19	708.62	705.58	78.43	634.5	521.04	107.3	669.44	514.07	248.56	533	402.14	100.83	563.85	297.93	124.81	509.15	328.23	107.68	588.27	370.1	113.28	433.02	123.72	158.27	463.85	132.84	251.53	358.53	103.17	206.65	366.77	77.456	240.25	362.77	76.133	177.68	566.83	39.114	135.71	596.2	44.682	255.84	658.64	48.004	204.04	726.5	1559.1	274.88	633.01	1249.8	289
416	1.7292	937.79	1243.4	255.1	825.26	1490.9	433.75	808.65	1508.2	103.76	853.52	1815.3	269.55	897.23	990.83	405.8	886.93	991.48	136.87	657.63	1032.1	332.2	646.35	1040.6	229.58	829.64	939.6	495.84	763.58	956.7	68.607	811.34	1089.8	476.2	768.1	1072.2	71.948	635.23	1002.2	277.22	942.24	655.14	469.83	1036	626.59	437.42	985.49	579.96	447.45	994.95	704.86	459.63	1032.1	541.09	443.06	1035.6	540.56	296.3	1053	372.25	462.24	1149.3	329.67	428.07	1083.5	309.12	451.09	1114.1	393	445.05	1191.4	128.65	418.59	1222.7	157.57	330.91	1158.5	65.508	353.03	1190.5	52.555	325.88	1180.9	44.943	389.11	1335.5	138.69	468	1368.4	170.76	351.61	1401.5	221.4	412.99	645.22	706.32	102.59	702.42	611.62	98.446	626.65	618.41	119.47	713.2	705.15	78.649	638.45	520.84	107.37	673.69	513.55	248.58	536.14	402.68	100.88	566.16	298.21	124.73	511.69	328.98	107.63	591.16	370.21	113.25	434.01	124.85	158.12	464.85	133.9	251.33	359.27	105.02	206.45	367.31	79.343	240.1	363.31	77.89	177.54	566.93	39.169	135.7	596.37	44.689	255.86	658.8	47.746	204.04	732.55	1558.2	276.07	638.96	1248.8	289.8
417	1.7333	943.75	1242.4	255.61	831.47	1489.7	434.79	814.63	1507.5	104.82	859.41	1814.4	271.15	903.51	989.82	405.93	892.46	990.53	136.98	663.72	1031.2	332.99	652.2	1039.8	230.39	836.13	938.71	496.12	768.89	955.96	69.03	817.73	1088.7	476.71	773.57	1071.4	72.464	641.12	1001.4	278.07	948.98	654.52	469.92	1042.6	625.94	437.07	992.13	579.31	447.46	1001.6	704.24	459.36	1038.6	540.31	442.95	1041.5	539.69	296.22	1059.3	371.44	462.23	1155.3	328.66	427.71	1089.7	308.25	451.02	1120.3	392.05	444.78	1197.1	127.63	418.34	1228	156.31	330.44	1163.8	64.526	352.99	1195.6	51.428	325.71	1186.3	43.989	389.05	1341.4	137.55	467.1	1373.8	169.4	350.5	1407.3	220.09	411.68	649.89	706.13	102.93	706.82	611.2	98.489	631.05	618.26	119.76	717.83	704.74	78.868	642.46	520.65	107.44	678.03	513.04	248.61	539.34	403.26	100.93	568.53	298.53	124.63	514.3	329.77	107.58	594.12	370.34	113.2	435.05	126.04	157.95	465.9	135.01	251.12	360.06	106.95	206.23	367.89	81.321	239.93	363.88	79.729	177.38	567.05	39.224	135.69	596.53	44.704	255.87	658.96	47.49	204.04	738.63	1557.3	277.27	644.96	1247.9	290.61
418	1.7375	949.76	1241.4	256.14	837.7	1488.5	435.85	820.64	1506.9	105.91	865.31	1813.6	272.76	909.85	988.85	406.08	898.02	989.61	137.1	669.86	1030.4	333.78	658.1	1039	231.22	842.66	937.86	496.42	774.26	955.24	69.466	824.17	1087.6	477.23	779.1	1070.6	72.99	647.06	1000.6	278.92	955.74	653.89	470.02	1049.2	625.27	436.76	998.78	578.65	447.47	1008.3	703.6	459.13	1045	539.52	442.83	1047.4	538.83	296.15	1065.4	370.61	462.21	1161.2	327.54	427.33	1095.6	307.34	450.94	1126.5	391.03	444.48	1202.5	126.52	418.07	1233	154.9	329.95	1168.7	63.508	352.95	1200.2	50.211	325.53	1191.3	42.982	388.99	1346.9	136.16	466.15	1378.9	167.75	349.33	1412.8	218.44	410.29	654.62	705.95	103.28	711.29	610.81	98.529	635.53	618.12	120.05	722.53	704.35	79.087	646.55	520.48	107.5	682.45	512.54	248.63	542.62	403.87	100.96	570.96	298.87	124.52	516.98	330.6	107.52	597.14	370.5	113.14	436.14	127.29	157.74	467.01	136.17	250.88	360.9	108.98	205.98	368.52	83.391	239.75	364.5	81.652	177.2	567.17	39.281	135.67	596.69	44.728	255.89	659.12	47.237	204.04	744.75	1556.4	278.5	651	1247.1	291.43
